<svg version="1.1" xmlns="http://www.w3.org/2000/svg" xmlns:xlink="http://www.w3.org/1999/xlink" width="86.57896" height="102.17567" viewBox="0,0,86.57896,102.17567"><g transform="translate(-163.38828,-214.10902)"><g data-paper-data="{&quot;isPaintingLayer&quot;:true}" fill-rule="nonzero" stroke-width="0.5" stroke-miterlimit="10" stroke-dasharray="" stroke-dashoffset="0" style="mix-blend-mode: normal"><g stroke="#414042" stroke-linecap="round" stroke-linejoin="round"><path d="M190.3033,282.53026c0.60549,-3.44374 1.58942,-2.8004 1.58942,-2.8004c0.56765,0.34059 0.71902,1.09745 1.32451,1.62726c1.85432,1.55157 6.13061,4.88178 7.49297,3.86001c3.02746,-2.61119 6.69826,-5.26021 9.68788,-2.34628c4.16276,3.21668 -2.23275,6.66042 -5.48727,9.23376c-2.49766,1.51373 -4.88178,3.25452 -9.30944,-0.07569c-3.59511,-3.06531 -5.071,-2.98962 -5.071,-2.98962c-2.04354,-1.24883 -0.83255,-3.06531 -0.22706,-6.50904z" fill="#faa51d"/><path d="M200.74805,285.21713l-1.93001,1.47589" fill="none"/></g><g fill="#faa51d" stroke="#414042" stroke-linecap="round" stroke-linejoin="round"><path d="M201.39138,294.33736c0,0 -1.58942,5.14669 -0.8704,13.43436c0.30275,3.55727 7.00101,-0.49196 6.50904,6.4712c-0.15137,1.96785 -8.89317,1.77863 -10.78533,1.05961c-1.77863,-0.68118 -2.23275,-1.32451 -1.93001,-3.21668c1.05961,-6.84963 -2.38413,-14.75888 -2.38413,-14.75888"/><path d="M199.80197,309.55036c1.36236,-0.2649 2.61119,-0.11353 2.61119,-0.11353"/></g><path d="M202.14825,287.86616c0,6.28198 1.58942,15.55358 -9.57435,15.55358c-11.16377,0 -6.43336,-8.43905 -6.43336,-14.72103c0,-6.28198 0.03784,-8.02277 6.43336,-8.02277c6.39551,0 9.57435,0.90824 9.57435,7.19022z" fill="#faa51d" stroke="#414042" stroke-linecap="round" stroke-linejoin="round"/><path d="M199.72628,290.62872c0,3.97354 0.8704,9.87709 -5.22237,9.87709c-6.09277,0 -5.56296,-5.3359 -5.56296,-9.34729c0,-4.01139 2.08138,-5.071 5.56296,-5.071c3.48158,0 5.22237,0.56765 5.22237,4.54119z" fill="#ffffff" stroke="none" stroke-linecap="butt" stroke-linejoin="miter"/><g fill="#faa51d" stroke="#414042" stroke-linecap="round" stroke-linejoin="round"><path d="M191.40076,303.00347c-0.37843,2.83825 -0.83255,7.03885 -0.64334,9.46082c0.15137,1.93001 -0.56765,3.02746 -2.57334,3.36805c-2.08138,0.34059 -9.15807,0.52981 -9.2716,-1.81648c-0.34059,-7.07669 4.95747,-2.72472 5.48727,-6.28198c1.24883,-8.24983 -1.24883,-13.39652 -1.24883,-13.39652"/><path d="M182.167,309.39898c0,0 1.47589,-0.18922 2.83825,0.15137"/></g><g fill="#faa51d"><path d="M186.48113,282.0383l1.6651,6.4712l-7.19022,4.91963l-0.18922,-3.74648l5.71433,-7.64434" stroke="none" stroke-linecap="butt" stroke-linejoin="miter"/><path d="M180.80464,289.68264c0.22706,-0.8704 0.90824,-3.33021 1.47589,-5.6008c0.71902,-2.8004 2.95178,-7.49297 6.35767,-3.70864" stroke="#414042" stroke-linecap="round" stroke-linejoin="round"/><path d="M187.84349,288.35813c1.36236,0.30275 4.54119,0.22706 6.88748,1.47589c2.68687,1.4002 3.40589,5.14669 1.32451,7.34159c-1.89216,1.96785 -5.3359,0.71902 -11.76926,-1.62726c-1.85432,-0.68118 -3.25452,-2.30844 -3.44374,-4.23845c0,-0.03784 0,-0.03784 0,-0.07569c-0.18922,-1.85432 0.11353,-3.74648 0.75687,-5.52512l1.43804,-3.97354" stroke="#414042" stroke-linecap="round" stroke-linejoin="round"/></g><path d="M179.13954,217.0614c0.71902,-2.04354 2.49766,-1.02177 2.49766,-1.02177c1.17314,-2.61119 3.86001,-1.4002 3.86001,-1.4002" fill="none" stroke="#fff200" stroke-linecap="round" stroke-linejoin="round"/><path d="M196.16901,235.71813l7.75787,-7.75787l2.42197,10.82318c0,0 4.65472,2.30844 7.6065,7.68218c2.95178,5.37374 2.49766,9.76356 2.49766,9.76356c0,0 5.10884,0.64334 5.86571,7.34159c1.43804,12.86671 -13.73711,21.30576 -33.26424,19.52713c-14.75888,-1.36236 -25.99833,-10.82318 -25.39284,-22.4789c0.56765,-10.48259 5.63865,-14.22907 5.63865,-14.22907l-1.6651,-17.67281l12.56397,8.7418c0,0 3.74648,-1.96785 8.06062,-2.11922c4.31413,-0.18922 7.94709,0.37843 7.90924,0.37843z" fill="#f9a41e" stroke="none" stroke-linecap="butt" stroke-linejoin="miter"/><path d="M216.52869,256.22919c2.98962,0.56765 4.84394,1.96785 5.86571,7.34159c1.4002,7.15238 -5.44943,22.06263 -33.26424,19.52713c-9.19592,-0.8704 -19.18654,-5.03316 -15.89417,-17.29438c2.98962,-11.16377 20.05693,-3.89786 26.86872,-5.18453c6.81179,-1.24883 9.42297,-5.71433 16.42398,-4.38982z" fill="#ffffff" stroke="none" stroke-linecap="butt" stroke-linejoin="miter"/><path d="M230.5307,257.32664c0,0 -1.74079,1.43804 -4.27629,2.2706c-2.15707,0.68118 -6.43336,1.28667 -6.43336,1.28667" fill="none" stroke="#414042" stroke-linecap="round" stroke-linejoin="round"/><path d="M229.58462,268.03629c0,0 -1.74079,0.11353 -4.31413,-0.18922c-2.61119,-0.30275 -5.14669,-1.4002 -5.14669,-1.4002" fill="none" stroke="#414042" stroke-linecap="round" stroke-linejoin="round"/><path d="M178.60974,236.36146l3.51942,2.61119" fill="none" stroke="#414042" stroke-linecap="round" stroke-linejoin="round"/><path d="M196.16901,235.71813l7.75787,-7.75787l2.42197,10.82318c0,0 4.65472,2.30844 7.6065,7.68218c2.95178,5.37374 2.49766,9.76356 2.49766,9.76356c0,0 5.10884,0.64334 5.86571,7.34159c1.43804,12.86671 -13.73711,21.30576 -33.26424,19.52713c-14.75888,-1.36236 -25.99833,-10.82318 -25.39284,-22.4789c0.56765,-10.48259 5.63865,-14.22907 5.63865,-14.22907l-1.6651,-17.67281l12.56397,8.7418c0,0 3.74648,-1.96785 8.06062,-2.11922c4.31413,-0.18922 7.94709,0.37843 7.90924,0.37843z" fill="none" stroke="#414042" stroke-linecap="round" stroke-linejoin="round"/><path d="M182.77249,267.84707c0,0 -3.33021,0.79471 -5.03316,1.05961c-1.70295,0.2649 -5.56296,0.30275 -5.56296,0.30275" fill="none" stroke="#414042" stroke-linecap="round" stroke-linejoin="round"/><path d="M170.47343,260.05136c0,0 2.15707,0.22706 6.16845,1.55157c3.59511,1.17314 5.97924,2.61119 5.97924,2.61119" fill="none" stroke="#414042" stroke-linecap="round" stroke-linejoin="round"/><path d="M211.94966,246.54131c2.64903,4.23845 2.61119,9.0067 0,10.63396c-2.64903,1.62726 -6.92532,-0.45412 -9.5365,-4.69257c-2.64903,-4.23845 -2.61119,-9.0067 0,-10.63396c2.61119,-1.6651 6.88748,0.45412 9.5365,4.69257z" fill="#ffffff" stroke="#414042" stroke-linecap="round" stroke-linejoin="round"/><path d="M208.46807,249.64446c0.2649,1.09745 -0.30275,2.19491 -1.32451,2.45981c-1.02177,0.2649 -2.08138,-0.41628 -2.34628,-1.51373c-0.2649,-1.09745 0.30275,-2.19491 1.32451,-2.45981c1.02177,-0.2649 2.08138,0.41628 2.34628,1.51373" fill="#414042" stroke="none" stroke-linecap="butt" stroke-linejoin="miter"/><path d="M189.5086,249.07681c2.64903,4.23845 2.23275,9.23376 -0.90824,11.20161c-3.14099,1.93001 -7.79571,0.07569 -10.44474,-4.16276c-2.64903,-4.23845 -2.23275,-9.23376 0.8704,-11.20161c3.17883,-1.93001 7.83356,-0.07569 10.48259,4.16276z" fill="#ffffff" stroke="#414042" stroke-linecap="round" stroke-linejoin="round"/><path d="M185.91348,252.86114c-0.03784,1.17314 -0.90824,2.08138 -2.00569,2.08138c-1.05961,-0.03784 -1.93001,-0.98393 -1.89216,-2.15707c0.03784,-1.17314 0.90824,-2.08138 2.00569,-2.08138c1.05961,0 1.89216,0.98393 1.89216,2.15707" fill="#414042" stroke="none" stroke-linecap="butt" stroke-linejoin="miter"/><path d="M199.42353,258.49978c1.62726,-0.15137 4.35198,-0.98393 4.61688,0.83255c0.03784,0.79471 -1.58942,3.9357 -3.40589,4.01139c-1.93001,0.07569 -5.18453,-2.04354 -5.071,-3.48158c0.15137,-1.47589 2.42197,-1.21098 3.86001,-1.36236z" fill="#414042" stroke="#414042" stroke-linecap="round" stroke-linejoin="round"/><path d="M181.29661,274.88592c-6.09277,-7.6065 3.10315,-18.92164 11.50435,-13.81279" fill="#ffffff" stroke="#414042" stroke-linecap="round" stroke-linejoin="round"/><path d="M206.42454,259.44587c0,0 3.51942,-5.29806 9.65003,-1.77863" fill="#ffffff" stroke="#414042" stroke-linecap="round" stroke-linejoin="round"/><path d="M192.46037,237.45892c-7.64434,-3.36805 -16.0077,-1.74079 -16.0077,-1.74079l14.56966,-19.71634l5.18453,18.84595z" data-paper-data="{&quot;index&quot;:null}" fill="#9966ff" stroke="none" stroke-linecap="butt" stroke-linejoin="miter"/><path d="M197.53137,283.24928c-38.78935,-1.21098 -28.19324,-36.8215 -28.19324,-36.8215" fill="none" stroke="#414042" stroke-linecap="round" stroke-linejoin="round"/><path d="M191.13586,284.91439c0.52981,-2.45981 5.44943,-1.62726 5.44943,-1.62726c-0.22706,3.17883 -6.01708,4.08707 -5.44943,1.62726z" fill="none" stroke="#414042" stroke-linecap="round" stroke-linejoin="round"/><path d="M196.58529,283.28713c0,0 4.91963,-0.83255 5.44943,1.62726c0.52981,2.45981 -5.26021,1.55157 -5.44943,-1.62726z" fill="none" stroke="#414042" stroke-linecap="round" stroke-linejoin="round"/><path d="M187.91918,224.51652c-0.41628,0.37843 -0.98393,0.60549 -1.58942,0.60549c-1.32451,0 -2.38413,-1.05961 -2.38413,-2.38413c0,-0.8704 0.45412,-1.62726 1.1353,-2.04354z" fill="#fff200" stroke="none" stroke-linecap="butt" stroke-linejoin="miter"/><path d="M181.22092,227.01418c0,1.32451 -1.05961,2.38413 -2.38413,2.38413c-0.30275,0 -0.56765,-0.03784 -0.83255,-0.15137l1.24883,-4.57904c1.1353,0.18922 1.96785,1.17314 1.96785,2.34628z" fill="#fff200" stroke="none" stroke-linecap="butt" stroke-linejoin="miter"/><path d="M186.21623,227.96026c0.65772,0 1.25375,0.26717 1.68554,0.69859c0.43141,0.43179 0.69859,1.02782 0.69859,1.68554c0,0.65772 -0.26717,1.25375 -0.69859,1.68554c-0.43179,0.43141 -1.02782,0.69859 -1.68554,0.69859c-0.65772,0 -1.25375,-0.26717 -1.68554,-0.69859c-0.43141,-0.43179 -0.69859,-1.02782 -0.69859,-1.68554c0,-0.65772 0.26717,-1.25375 0.69859,-1.68554c0.43179,-0.43141 1.02782,-0.69859 1.68554,-0.69859z" fill="#fff200" stroke="none" stroke-linecap="butt" stroke-linejoin="miter"/><path d="M182.12916,236.36147c0,0.11353 0,0.22706 -0.03784,0.37843c-0.64334,0.22706 -1.24883,0.45412 -1.89216,0.71902l-2.68687,-1.89216c0.30275,-0.94608 1.21098,-1.58942 2.23275,-1.58942c1.32451,0 2.38413,1.05961 2.38413,2.38413z" fill="#fff200" stroke="none" stroke-linecap="butt" stroke-linejoin="miter"/><path d="M196.20685,235.71813c0,0 -1.55157,-0.30275 -3.89786,-0.37843c-0.07569,-0.22706 -0.15137,-0.49196 -0.15137,-0.79471c0,-1.02177 0.64334,-1.89216 1.51373,-2.23275z" fill="#fff200" stroke="none" stroke-linecap="butt" stroke-linejoin="miter"/><path d="M192.46037,237.45892c-7.64434,-3.36805 -16.0077,-1.74079 -16.0077,-1.74079l14.56966,-19.71634l5.18453,18.84595z" data-paper-data="{&quot;index&quot;:null}" fill="none" stroke="#414042" stroke-linecap="round" stroke-linejoin="round"/><g data-paper-data="{&quot;index&quot;:null}"><g><g><path d="M220.15561,270.66208l5.26021,0.79471v2.11922l-5.26021,0.79471v-3.70864" fill="#ffffff" stroke="#414042" stroke-linecap="round" stroke-linejoin="round"/><path d="M227.83779,276.11151c-2.19491,1.05961 -4.57904,-2.00569 -1.62726,-3.55727" fill="#ffffff" stroke="#414042" stroke-linecap="round" stroke-linejoin="round"/><path d="M226.21053,272.5164c-2.95178,-1.55157 -0.56765,-4.61688 1.62726,-3.55727" fill="#ffffff" stroke="#414042" stroke-linecap="round" stroke-linejoin="round"/><path d="M202.10437,277.89014v-10.74749l18.05124,3.51942c0.37843,0 0.64334,0.83255 0.64334,1.85432c0,1.02177 -0.30275,1.85432 -0.64334,1.85432z" fill="#9966ff" stroke="none" stroke-linecap="butt" stroke-linejoin="miter"/><path d="M210.95969,276.14935c2.91393,-3.74648 -1.1353,-7.45512 -1.1353,-7.45512l2.49766,0.56765c3.44374,2.98962 1.21098,6.39551 1.21098,6.39551z" fill="#fff200" stroke="none" stroke-linecap="butt" stroke-linejoin="miter"/><path d="M205.77517,277.17112c3.51942,-4.12492 -0.56765,-9.42297 -0.56765,-9.42297l2.72472,0.52981c3.40589,4.23845 0.41628,8.40121 0.41628,8.40121z" fill="#fff200" stroke="none" stroke-linecap="butt" stroke-linejoin="miter"/><path d="M216.03069,275.12758c1.43804,-3.10315 -1.24883,-5.56296 -1.24883,-5.56296l2.04354,0.41628c2.64903,1.93001 1.09745,4.8061 1.09745,4.8061z" fill="#fff200" stroke="none" stroke-linecap="butt" stroke-linejoin="miter"/><path d="M202.10437,277.89014c-0.52186,0 -0.9949,-0.60209 -1.33776,-1.57504c-0.34248,-0.97257 -0.5544,-2.31601 -0.5544,-3.79871c0,-1.4827 0.21192,-2.82614 0.5544,-3.79871c0.34286,-0.97295 0.8159,-1.57504 1.33776,-1.57504c0.52186,0 0.9949,0.60209 1.33776,1.57504c0.34248,0.97257 0.5544,2.31601 0.5544,3.79871c0,1.4827 -0.21192,2.82614 -0.5544,3.79871c-0.34286,0.97295 -0.8159,1.57504 -1.33776,1.57504z" fill="#6f52cc" stroke="#414042" stroke-linecap="round" stroke-linejoin="round"/></g><path d="M187.6104,281.25819l-3.51942,-2.08138" fill="none" stroke="#fff200" stroke-linecap="round" stroke-linejoin="round"/><path d="M186.62647,278.38211l-1.6651,3.63295" fill="none" stroke="#fff200" stroke-linecap="round" stroke-linejoin="round"/><path d="M186.24803,281.75016l-1.21098,-3.33021" fill="none" stroke="#fff200" stroke-linecap="round" stroke-linejoin="round"/><path d="M187.26981,279.78231l-4.01139,0.75687" fill="none" stroke="#fff200" stroke-linecap="round" stroke-linejoin="round"/><path d="M183.63685,268.27795l-2.76256,-2.42197" fill="none" stroke="#fff200" stroke-linecap="round" stroke-linejoin="round"/><path d="M181.21488,268.69423l2.08138,-3.89786" fill="none" stroke="#fff200" stroke-linecap="round" stroke-linejoin="round"/><path d="M181.9339,264.645l0.30275,4.04923" fill="none" stroke="#fff200" stroke-linecap="round" stroke-linejoin="round"/><path d="M179.32271,267.74815l4.8061,-1.81648" fill="none" stroke="#fff200" stroke-linecap="round" stroke-linejoin="round"/><path d="M193.66532,287.72939v-1.09745" fill="none" stroke="#9966ff" stroke-linecap="round" stroke-linejoin="round"/><path d="M193.66532,282.73409v1.09745" fill="none" stroke="#9966ff" stroke-linecap="round" stroke-linejoin="round"/><path d="M195.40611,287.01037l-0.75687,-0.79471" fill="none" stroke="#9966ff" stroke-linecap="round" stroke-linejoin="round"/><path d="M192.64355,284.24781l-0.75687,-0.79471" fill="none" stroke="#9966ff" stroke-linecap="round" stroke-linejoin="round"/><path d="M196.16297,285.23174h-1.09745" fill="none" stroke="#9966ff" stroke-linecap="round" stroke-linejoin="round"/><path d="M192.22727,285.23174h-1.09745" fill="none" stroke="#9966ff" stroke-linecap="round" stroke-linejoin="round"/><path d="M194.64924,284.24781l0.75687,-0.79471" fill="none" stroke="#9966ff" stroke-linecap="round" stroke-linejoin="round"/><path d="M192.64355,286.21566l-0.75687,0.79471" fill="none" stroke="#9966ff" stroke-linecap="round" stroke-linejoin="round"/><path d="M206.83478,262.07166v1.05961" fill="none" stroke="#9966ff" stroke-linecap="round" stroke-linejoin="round"/><path d="M208.61341,262.41225l-0.75687,-0.75687" fill="none" stroke="#9966ff" stroke-linecap="round" stroke-linejoin="round"/><path d="M205.85086,259.64969l-0.75687,-0.79471" fill="none" stroke="#9966ff" stroke-linecap="round" stroke-linejoin="round"/><path d="M208.27283,260.63361h1.09745" fill="none" stroke="#9966ff" stroke-linecap="round" stroke-linejoin="round"/><path d="M205.43458,260.63361h-1.09745" fill="none" stroke="#9966ff" stroke-linecap="round" stroke-linejoin="round"/><path d="M207.85654,259.64969l0.75687,-0.79471" fill="none" stroke="#9966ff" stroke-linecap="round" stroke-linejoin="round"/><path d="M205.85086,261.65538l-0.75687,0.75687" fill="none" stroke="#9966ff" stroke-linecap="round" stroke-linejoin="round"/><path d="M188.89707,274.59778v1.85432" fill="none" stroke="#9966ff" stroke-linecap="round" stroke-linejoin="round"/><path d="M188.89707,268.01305v1.81648" fill="none" stroke="#9966ff" stroke-linecap="round" stroke-linejoin="round"/><path d="M191.84884,275.20327l-1.28667,-1.28667" fill="none" stroke="#9966ff" stroke-linecap="round" stroke-linejoin="round"/><path d="M185.90745,269.22404l1.28667,1.32451" fill="none" stroke="#9966ff" stroke-linecap="round" stroke-linejoin="round"/><path d="M193.09767,272.21365h-1.81648" fill="none" stroke="#9966ff" stroke-linecap="round" stroke-linejoin="round"/><path d="M186.4751,272.21365h-1.81648" fill="none" stroke="#9966ff" stroke-linecap="round" stroke-linejoin="round"/><path d="M191.84884,269.22403l-1.28667,1.32451" fill="none" stroke="#9966ff" stroke-linecap="round" stroke-linejoin="round"/><path d="M187.19412,273.9166l-1.28667,1.28667" fill="none" stroke="#9966ff" stroke-linecap="round" stroke-linejoin="round"/><path d="M197.10906,277.89014c1.85432,1.74079 -2.8004,4.57904 -3.89786,0.83255c-1.24883,-4.35198 7.94709,-4.35198 7.94709,-4.35198" fill="none" stroke="#fff200" stroke-linecap="round" stroke-linejoin="round"/><path d="M202.4828,269.26188c0,0 -11.88279,-0.56765 -13.54789,-5.94139c-2.34628,-7.53081 9.0067,-11.5422 11.2773,-4.46551c2.19491,6.92532 -6.39551,6.54689 -6.54689,2.91393" fill="none" stroke="#fff200" stroke-linecap="round" stroke-linejoin="round"/><path d="M202.10437,267.14265l18.05124,3.51942c0.37843,0 0.64334,0.83255 0.64334,1.85432c0,1.02177 -0.30275,1.85432 -0.64334,1.85432l-18.05124,3.51942" fill="none" stroke="#414042" stroke-linecap="round" stroke-linejoin="round"/></g><path d="M247.74335,268.01305c6.09277,7.6065 -3.10315,18.92164 -11.50435,13.81279" fill="#ffffff" stroke="#414042" stroke-linecap="round" stroke-linejoin="round"/><path d="M222.61542,283.4531c0,0 -3.51942,5.29806 -9.65003,1.77863" fill="#ffffff" stroke="#414042" stroke-linecap="round" stroke-linejoin="round"/></g></g></g></svg>